<mxfile host="app.diagrams.net" modified="2024-01-31T17:56:53.598Z" agent="Mozilla/5.0 (Windows NT 10.0; Win64; x64) AppleWebKit/537.36 (KHTML, like Gecko) Chrome/120.0.0.0 Safari/537.36 OPR/106.0.0.0" etag="-mMKSEFAa6YpE1my8ITO" version="23.0.2" type="github">
  <diagram name="Requirement and Analysis modeling" id="6AoinUn0qcbcdu-xhCZd">
    <mxGraphModel dx="1263" dy="766" grid="1" gridSize="10" guides="1" tooltips="1" connect="1" arrows="1" fold="1" page="1" pageScale="1" pageWidth="1000" pageHeight="700" math="0" shadow="0">
      <root>
        <mxCell id="0" />
        <mxCell id="1" parent="0" />
        <mxCell id="26JcNh-beGzwlRqYraIm-18" style="rounded=0;orthogonalLoop=1;jettySize=auto;html=1;" parent="1" source="26JcNh-beGzwlRqYraIm-2" target="26JcNh-beGzwlRqYraIm-11" edge="1">
          <mxGeometry relative="1" as="geometry" />
        </mxCell>
        <mxCell id="26JcNh-beGzwlRqYraIm-19" style="rounded=0;orthogonalLoop=1;jettySize=auto;html=1;" parent="1" source="26JcNh-beGzwlRqYraIm-2" target="26JcNh-beGzwlRqYraIm-13" edge="1">
          <mxGeometry relative="1" as="geometry" />
        </mxCell>
        <mxCell id="26JcNh-beGzwlRqYraIm-20" style="rounded=0;orthogonalLoop=1;jettySize=auto;html=1;" parent="1" source="26JcNh-beGzwlRqYraIm-2" target="26JcNh-beGzwlRqYraIm-15" edge="1">
          <mxGeometry relative="1" as="geometry" />
        </mxCell>
        <mxCell id="26JcNh-beGzwlRqYraIm-21" style="rounded=0;orthogonalLoop=1;jettySize=auto;html=1;" parent="1" source="26JcNh-beGzwlRqYraIm-2" target="26JcNh-beGzwlRqYraIm-17" edge="1">
          <mxGeometry relative="1" as="geometry" />
        </mxCell>
        <mxCell id="26JcNh-beGzwlRqYraIm-2" value="&lt;div&gt;Requirement&lt;/div&gt;&lt;div&gt;and Analysis modeling&lt;/div&gt;" style="rounded=1;whiteSpace=wrap;html=1;" parent="1" vertex="1">
          <mxGeometry x="450" y="110" width="180" height="60" as="geometry" />
        </mxCell>
        <mxCell id="26JcNh-beGzwlRqYraIm-8" value="Diagram" style="rounded=0;whiteSpace=wrap;html=1;fillColor=#dae8fc;strokeColor=#6c8ebf;" parent="1" vertex="1">
          <mxGeometry x="150" y="80" width="60" height="50" as="geometry" />
        </mxCell>
        <mxCell id="26JcNh-beGzwlRqYraIm-9" value="Document" style="rounded=0;whiteSpace=wrap;html=1;fillColor=#fff2cc;strokeColor=#d6b656;" parent="1" vertex="1">
          <mxGeometry x="150" y="140" width="60" height="50" as="geometry" />
        </mxCell>
        <mxCell id="26JcNh-beGzwlRqYraIm-23" style="edgeStyle=orthogonalEdgeStyle;rounded=0;orthogonalLoop=1;jettySize=auto;html=1;" parent="1" source="26JcNh-beGzwlRqYraIm-11" target="26JcNh-beGzwlRqYraIm-22" edge="1">
          <mxGeometry relative="1" as="geometry">
            <Array as="points">
              <mxPoint x="290" y="350" />
            </Array>
          </mxGeometry>
        </mxCell>
        <mxCell id="26JcNh-beGzwlRqYraIm-27" style="edgeStyle=orthogonalEdgeStyle;rounded=0;orthogonalLoop=1;jettySize=auto;html=1;entryX=1;entryY=0.5;entryDx=0;entryDy=0;" parent="1" source="26JcNh-beGzwlRqYraIm-11" target="26JcNh-beGzwlRqYraIm-24" edge="1">
          <mxGeometry relative="1" as="geometry" />
        </mxCell>
        <mxCell id="26JcNh-beGzwlRqYraIm-28" style="edgeStyle=orthogonalEdgeStyle;rounded=0;orthogonalLoop=1;jettySize=auto;html=1;entryX=1;entryY=0.5;entryDx=0;entryDy=0;" parent="1" source="26JcNh-beGzwlRqYraIm-11" target="26JcNh-beGzwlRqYraIm-26" edge="1">
          <mxGeometry relative="1" as="geometry" />
        </mxCell>
        <mxCell id="26JcNh-beGzwlRqYraIm-11" value="Requirement Determination" style="rounded=1;whiteSpace=wrap;html=1;" parent="1" vertex="1">
          <mxGeometry x="230" y="230" width="120" height="60" as="geometry" />
        </mxCell>
        <mxCell id="26JcNh-beGzwlRqYraIm-30" style="edgeStyle=orthogonalEdgeStyle;rounded=0;orthogonalLoop=1;jettySize=auto;html=1;entryX=1;entryY=0.5;entryDx=0;entryDy=0;" parent="1" source="26JcNh-beGzwlRqYraIm-13" target="26JcNh-beGzwlRqYraIm-29" edge="1">
          <mxGeometry relative="1" as="geometry" />
        </mxCell>
        <mxCell id="26JcNh-beGzwlRqYraIm-32" style="edgeStyle=orthogonalEdgeStyle;rounded=0;orthogonalLoop=1;jettySize=auto;html=1;entryX=1;entryY=0.5;entryDx=0;entryDy=0;" parent="1" source="26JcNh-beGzwlRqYraIm-13" target="26JcNh-beGzwlRqYraIm-31" edge="1">
          <mxGeometry relative="1" as="geometry" />
        </mxCell>
        <mxCell id="26JcNh-beGzwlRqYraIm-35" style="edgeStyle=orthogonalEdgeStyle;rounded=0;orthogonalLoop=1;jettySize=auto;html=1;entryX=1;entryY=0.5;entryDx=0;entryDy=0;" parent="1" source="26JcNh-beGzwlRqYraIm-13" target="26JcNh-beGzwlRqYraIm-33" edge="1">
          <mxGeometry relative="1" as="geometry" />
        </mxCell>
        <mxCell id="26JcNh-beGzwlRqYraIm-36" style="edgeStyle=orthogonalEdgeStyle;rounded=0;orthogonalLoop=1;jettySize=auto;html=1;entryX=1;entryY=0.5;entryDx=0;entryDy=0;" parent="1" source="26JcNh-beGzwlRqYraIm-13" target="26JcNh-beGzwlRqYraIm-34" edge="1">
          <mxGeometry relative="1" as="geometry" />
        </mxCell>
        <mxCell id="26JcNh-beGzwlRqYraIm-13" value="Functional Modeling" style="rounded=1;whiteSpace=wrap;html=1;" parent="1" vertex="1">
          <mxGeometry x="405" y="230" width="120" height="60" as="geometry" />
        </mxCell>
        <mxCell id="26JcNh-beGzwlRqYraIm-42" style="edgeStyle=orthogonalEdgeStyle;rounded=0;orthogonalLoop=1;jettySize=auto;html=1;entryX=1;entryY=0.5;entryDx=0;entryDy=0;" parent="1" source="26JcNh-beGzwlRqYraIm-15" target="26JcNh-beGzwlRqYraIm-48" edge="1">
          <mxGeometry relative="1" as="geometry">
            <mxPoint x="760" y="350" as="targetPoint" />
            <Array as="points">
              <mxPoint x="780" y="350" />
            </Array>
          </mxGeometry>
        </mxCell>
        <mxCell id="26JcNh-beGzwlRqYraIm-43" style="edgeStyle=orthogonalEdgeStyle;rounded=0;orthogonalLoop=1;jettySize=auto;html=1;entryX=1;entryY=0.5;entryDx=0;entryDy=0;" parent="1" source="26JcNh-beGzwlRqYraIm-15" target="26JcNh-beGzwlRqYraIm-38" edge="1">
          <mxGeometry relative="1" as="geometry" />
        </mxCell>
        <mxCell id="26JcNh-beGzwlRqYraIm-45" style="edgeStyle=orthogonalEdgeStyle;rounded=0;orthogonalLoop=1;jettySize=auto;html=1;entryX=1;entryY=0.5;entryDx=0;entryDy=0;" parent="1" source="26JcNh-beGzwlRqYraIm-15" target="26JcNh-beGzwlRqYraIm-39" edge="1">
          <mxGeometry relative="1" as="geometry" />
        </mxCell>
        <mxCell id="26JcNh-beGzwlRqYraIm-15" value="Structural Modeling" style="rounded=1;whiteSpace=wrap;html=1;" parent="1" vertex="1">
          <mxGeometry x="720" y="230" width="120" height="60" as="geometry" />
        </mxCell>
        <mxCell id="26JcNh-beGzwlRqYraIm-51" style="edgeStyle=orthogonalEdgeStyle;rounded=0;orthogonalLoop=1;jettySize=auto;html=1;entryX=1;entryY=0.5;entryDx=0;entryDy=0;" parent="1" source="26JcNh-beGzwlRqYraIm-17" target="26JcNh-beGzwlRqYraIm-48" edge="1">
          <mxGeometry relative="1" as="geometry" />
        </mxCell>
        <mxCell id="26JcNh-beGzwlRqYraIm-67" style="edgeStyle=orthogonalEdgeStyle;rounded=0;orthogonalLoop=1;jettySize=auto;html=1;entryX=1;entryY=0.5;entryDx=0;entryDy=0;" parent="1" source="26JcNh-beGzwlRqYraIm-17" target="26JcNh-beGzwlRqYraIm-31" edge="1">
          <mxGeometry relative="1" as="geometry">
            <Array as="points">
              <mxPoint x="620" y="420" />
            </Array>
          </mxGeometry>
        </mxCell>
        <mxCell id="26JcNh-beGzwlRqYraIm-69" value="&lt;font style=&quot;font-size: 9px;&quot;&gt;depiction of behavior over time&lt;/font&gt;" style="edgeLabel;html=1;align=center;verticalAlign=middle;resizable=0;points=[];" parent="26JcNh-beGzwlRqYraIm-67" vertex="1" connectable="0">
          <mxGeometry x="0.377" y="3" relative="1" as="geometry">
            <mxPoint y="-4" as="offset" />
          </mxGeometry>
        </mxCell>
        <mxCell id="26JcNh-beGzwlRqYraIm-68" style="edgeStyle=orthogonalEdgeStyle;rounded=0;orthogonalLoop=1;jettySize=auto;html=1;entryX=1;entryY=0.5;entryDx=0;entryDy=0;" parent="1" source="26JcNh-beGzwlRqYraIm-17" target="26JcNh-beGzwlRqYraIm-33" edge="1">
          <mxGeometry relative="1" as="geometry">
            <Array as="points">
              <mxPoint x="620" y="490" />
            </Array>
          </mxGeometry>
        </mxCell>
        <mxCell id="26JcNh-beGzwlRqYraIm-70" value="&lt;font style=&quot;font-size: 9px;&quot;&gt; flow of behavior&lt;/font&gt;" style="edgeLabel;html=1;align=center;verticalAlign=middle;resizable=0;points=[];" parent="26JcNh-beGzwlRqYraIm-68" vertex="1" connectable="0">
          <mxGeometry x="0.5146" y="3" relative="1" as="geometry">
            <mxPoint y="-5" as="offset" />
          </mxGeometry>
        </mxCell>
        <mxCell id="26JcNh-beGzwlRqYraIm-17" value="Behavioral Modeling" style="rounded=1;whiteSpace=wrap;html=1;" parent="1" vertex="1">
          <mxGeometry x="560" y="230" width="120" height="60" as="geometry" />
        </mxCell>
        <mxCell id="26JcNh-beGzwlRqYraIm-22" value="Requirements Definition" style="rounded=1;whiteSpace=wrap;html=1;fillColor=#fff2cc;strokeColor=#d6b656;" parent="1" vertex="1">
          <mxGeometry x="150" y="320" width="120" height="60" as="geometry" />
        </mxCell>
        <mxCell id="26JcNh-beGzwlRqYraIm-24" value="Use-Case Descriptions" style="rounded=1;whiteSpace=wrap;html=1;fillColor=#fff2cc;strokeColor=#d6b656;" parent="1" vertex="1">
          <mxGeometry x="150" y="390" width="120" height="60" as="geometry" />
        </mxCell>
        <mxCell id="26JcNh-beGzwlRqYraIm-26" value="System Proposal" style="rounded=1;whiteSpace=wrap;html=1;fillColor=#fff2cc;strokeColor=#d6b656;" parent="1" vertex="1">
          <mxGeometry x="150" y="460" width="120" height="60" as="geometry" />
        </mxCell>
        <mxCell id="26JcNh-beGzwlRqYraIm-29" value="Use-Case Diagrams" style="rounded=1;whiteSpace=wrap;html=1;fillColor=#dae8fc;strokeColor=#6c8ebf;" parent="1" vertex="1">
          <mxGeometry x="325" y="320" width="120" height="60" as="geometry" />
        </mxCell>
        <mxCell id="26JcNh-beGzwlRqYraIm-31" value="Sequence Diagrams" style="rounded=1;whiteSpace=wrap;html=1;fillColor=#dae8fc;strokeColor=#6c8ebf;" parent="1" vertex="1">
          <mxGeometry x="325" y="390" width="120" height="60" as="geometry" />
        </mxCell>
        <mxCell id="26JcNh-beGzwlRqYraIm-33" value="Activity Diagrams" style="rounded=1;whiteSpace=wrap;html=1;fillColor=#dae8fc;strokeColor=#6c8ebf;" parent="1" vertex="1">
          <mxGeometry x="325" y="460" width="120" height="60" as="geometry" />
        </mxCell>
        <mxCell id="26JcNh-beGzwlRqYraIm-34" value="Communication Diagrams" style="rounded=1;whiteSpace=wrap;html=1;fillColor=#dae8fc;strokeColor=#6c8ebf;" parent="1" vertex="1">
          <mxGeometry x="325" y="530" width="120" height="60" as="geometry" />
        </mxCell>
        <mxCell id="26JcNh-beGzwlRqYraIm-38" value="Object Diagrams" style="rounded=1;whiteSpace=wrap;html=1;fillColor=#dae8fc;strokeColor=#6c8ebf;" parent="1" vertex="1">
          <mxGeometry x="640" y="390" width="120" height="60" as="geometry" />
        </mxCell>
        <mxCell id="26JcNh-beGzwlRqYraIm-39" value="CRC Cards" style="rounded=1;whiteSpace=wrap;html=1;fillColor=#fff2cc;strokeColor=#d6b656;" parent="1" vertex="1">
          <mxGeometry x="640" y="460" width="120" height="60" as="geometry" />
        </mxCell>
        <mxCell id="26JcNh-beGzwlRqYraIm-48" value="Class Diagrams" style="rounded=1;whiteSpace=wrap;html=1;fillColor=#dae8fc;strokeColor=#6c8ebf;" parent="1" vertex="1">
          <mxGeometry x="480" y="320" width="120" height="60" as="geometry" />
        </mxCell>
      </root>
    </mxGraphModel>
  </diagram>
</mxfile>
